<svg xmlns="http://www.w3.org/2000/svg" viewBox="0 0 822.6 748.34"><defs><style>.cls-1{fill:#ffe000;}.cls-2,.cls-5{fill:none;stroke:#fff;stroke-miterlimit:10;}.cls-2{stroke-width:3px;}.cls-3{fill:#e40925;}.cls-4{fill:#fff;}.cls-5{stroke-width:4px;}</style></defs><g id="Capa_2" data-name="Capa 2"><g id="Capa_1-2" data-name="Capa 1"><path class="cls-1" d="M64,124.6q-7.41,1.8-14.4,3.9t-13.3,3.9q-6.3,1.8-11.7,3a46.36,46.36,0,0,1-10,1.2q-6.21,0-9.8-2.8c-2.27-1.47-3.37-3.23-3.3-5.3a60.49,60.49,0,0,1,.7-7.1,89.94,89.94,0,0,1,3.9-13.6q2.7-7.39,6.3-15.4t7.8-16q4.2-8,8.4-15.4,10-17.59,21.8-35.8a40.07,40.07,0,0,0-4.1.2c-1.27.14-2.64.33-4.1.6a6.46,6.46,0,0,1-1.5.2h-1.3a4.53,4.53,0,0,1-2.8-.9c-.8-.6-1.54-2-2.2-4.3-.27-.27-.3-1-.1-2.1s.43-1.77.7-1.9.73-.1,1.8-.3,2.3-.4,3.7-.6l4.3-.6c1.46-.2,2.73-.37,3.8-.5q5.79-.6,14-.9t17-.3q10.2,0,19,.4a109,109,0,0,1,13.2,1.2,14.35,14.35,0,0,1,6.6,2.8q2.4,2,1.6,6.4a7.16,7.16,0,0,1-.8,2.8c-.27.27-.67.14-1.2-.4a15.16,15.16,0,0,0-5.3-1.6q-3.7-.6-8.5-.9t-10.1-.4C90.6,24,87.24,24,84,24c-3.87,0-7.27,0-10.2.1s-4.87.1-5.8.1q-1.41,3.4-4.4,9.2t-6.7,12.5q-3.7,6.7-7.4,13.5t-6.8,12.3q-3.1,5.51-5.1,9c-1.34,2.34-1.94,3.57-1.8,3.7q7.59-1,12.2-1.8t8.6-1.4a22.73,22.73,0,0,0,4.2-.8c.26-.13.8.07,1.6.6A4.07,4.07,0,0,1,64,82.8a8.85,8.85,0,0,1,.8,5.4c-.27.67-.44,1.1-.5,1.3s-.44.37-1.1.5q-1.6.41-6.9,1.3l-11.1,1.9q-5.81,1-10.5,1.9t-5.1,1.3a19.38,19.38,0,0,1-1.2,2.6c-.8,1.6-1.74,3.54-2.8,5.8s-2.17,4.67-3.3,7.2-2.1,4.87-2.9,7c-.4.93-.8,2-1.2,3.2s-.74,2.37-1,3.5a18.69,18.69,0,0,0-.5,3c-.07.87,0,1.37.1,1.5s.2.2.6.2a23.75,23.75,0,0,0,4.5-.8c2.2-.53,4.76-1.2,7.7-2s6-1.67,9.3-2.6,6.4-1.8,9.4-2.6,5.7-1.5,8.1-2.1a24.62,24.62,0,0,1,5.4-.9,10.83,10.83,0,0,1,3.2.5,14.61,14.61,0,0,1,4.4,2.9c-.54.27-1.14.53-1.8.8A28.08,28.08,0,0,1,64,124.6Z"/><path class="cls-1" d="M112.64,95a62.75,62.75,0,0,1-10.6,7.5,26.8,26.8,0,0,1-8.4,2.9c-.94,0-2,0-3.1-.1a16,16,0,0,1-3.2-.5,6,6,0,0,1-2.6-1.4,5.11,5.11,0,0,1-1.5-2.8c-.4-1.73-.14-4.77.8-9.1a122.53,122.53,0,0,1,5-16.2q3.6-9.7,9.4-22.2t14-26.9q5.79-10.2,8.9-15.5t4.8-7.7c1.13-1.6,2-2.5,2.5-2.7a5.73,5.73,0,0,1,2-.3,8,8,0,0,1,3.6.8,7.51,7.51,0,0,1,2.6,2.1,10.87,10.87,0,0,1,1.5,2.6,6.33,6.33,0,0,1,.5,2.1,26.65,26.65,0,0,1-1.8,5.8q-1.6,4-4,8.9t-5.1,10.3q-2.7,5.4-5.1,10t-4.3,8c-1.27,2.27-2.1,3.73-2.5,4.4s-1.17,2.37-2.3,4.7-2.47,5-4,8-3.07,6.17-4.6,9.5-2.94,6.4-4.2,9.2-2.27,5.2-3,7.2-1,3.13-.7,3.4.66-.17,1.6-.9,2.1-1.7,3.5-2.9,3-2.6,4.8-4.2,3.56-3.27,5.3-5q6.39-5.81,14.4-13.6a8.54,8.54,0,0,1,4.4,1.8,3.46,3.46,0,0,1,1.2,2.4,4.33,4.33,0,0,1-.8,2.4,9,9,0,0,1-1.8,2q-2,2-4.6,4.4c-1.74,1.6-3.4,3.14-5,4.6s-3.07,2.83-4.4,4.1S113.44,94.33,112.64,95Z"/><path class="cls-1" d="M141.63,156c-.53,1.2-1,2.3-1.4,3.3a6.46,6.46,0,0,1-1,1.9,4.71,4.71,0,0,1-2.4,1.2,14.51,14.51,0,0,1-4.2.6,9.38,9.38,0,0,1-4.6-1q-2.19-1.2-.1-8.6a153.2,153.2,0,0,1,6.6-17.9q4.5-10.5,10.4-22.8t11.5-23.1q5.61-10.8,10-18.7t5.8-9.9a11.82,11.82,0,0,1,2.4-2.7,8.91,8.91,0,0,1,2.4-.9,8.24,8.24,0,0,1,4.4,1,11.93,11.93,0,0,1,3.2,3.2,5.57,5.57,0,0,1,1,2.9,16.85,16.85,0,0,1-1.4,4.9c-.27,1.07-.47,1.8-.6,2.2a8,8,0,0,1-.4,1c.27,0,1-.67,2.1-2s2.6-2.87,4.4-4.6a73.62,73.62,0,0,1,6.1-5.2,24.19,24.19,0,0,1,7-3.8,14.05,14.05,0,0,1,4.8-.8,9.71,9.71,0,0,1,6.7,2.4,17.21,17.21,0,0,1,4.3,6,9.57,9.57,0,0,1,.6,2.8c0,.67-.06,2.14-.2,4.4a11,11,0,0,1,1.1-.3c.33-.07.83-.13,1.5-.2l2.9-.3,5.7-.6a4,4,0,0,1,2.6,1.8,3.16,3.16,0,0,1,.3,2.3,4.88,4.88,0,0,1-1.1,2,3.28,3.28,0,0,1-1.6,1.1c-1.2.27-2.47.53-3.8.8s-3.2.73-5.6,1.4a36.1,36.1,0,0,0-5.2,1.4,4.77,4.77,0,0,0-1.2.8,28.51,28.51,0,0,1-4.3,7.2,53.22,53.22,0,0,1-7.1,7.5,47.81,47.81,0,0,1-8.3,5.9A16.42,16.42,0,0,1,187,105a14,14,0,0,1-6.6-1.7,8.3,8.3,0,0,1-4.2-4.5l-.4-1.4q-2.6,3.6-4.4,6c-1.2,1.6-2.26,3-3.2,4.3s-1.73,2.47-2.4,3.6a43.69,43.69,0,0,0-2,3.9q-5,9.8-8.7,16.4t-6.2,11c-1.66,2.93-3.1,5.4-4.3,7.4A42,42,0,0,0,141.63,156Zm44.6-58.6c0,.27.6-.07,1.8-1s2.54-2,4-3.2,2.8-2.37,4-3.5,1.73-1.77,1.6-1.9-.46,0-1,.3-1.2.73-2,1.2-1.56,1-2.3,1.5l-1.9,1.4c-.93.93-1.9,2-2.9,3.1S186.1,97.13,186.23,97.4Zm4.6-18.2c-1.6,1.73-2.26,2.6-2,2.6a22.57,22.57,0,0,0,3.9-1.8,71.8,71.8,0,0,1,10.5-4c.94-.27,1.67-.5,2.2-.7s.93-.37,1.2-.5a17.93,17.93,0,0,0,1.7-3.6,48,48,0,0,0,2.3-7.8A36.07,36.07,0,0,0,200,70,99.84,99.84,0,0,0,190.83,79.2Z"/><path class="cls-1" d="M251.83,95a62.35,62.35,0,0,1-10.6,7.5,26.63,26.63,0,0,1-8.4,2.9c-.93,0-2,0-3.1-.1a16.1,16.1,0,0,1-3.2-.5,6,6,0,0,1-2.6-1.4,5.23,5.23,0,0,1-1.5-2.8c-.4-1.73-.13-4.77.8-9.1a122.53,122.53,0,0,1,5-16.2q3.6-9.7,9.4-22.2t14-26.9q5.81-10.2,8.9-15.5t4.8-7.7c1.13-1.6,2-2.5,2.5-2.7a5.73,5.73,0,0,1,2-.3,8,8,0,0,1,3.6.8A7.42,7.42,0,0,1,276,2.9a10.24,10.24,0,0,1,1.5,2.6,6.33,6.33,0,0,1,.5,2.1,25.55,25.55,0,0,1-1.8,5.8q-1.61,4-4,8.9t-5.1,10.3q-2.7,5.4-5.1,10t-4.3,8c-1.27,2.27-2.1,3.73-2.5,4.4s-1.17,2.37-2.3,4.7-2.47,5-4,8-3.07,6.17-4.6,9.5-2.93,6.4-4.2,9.2-2.27,5.2-3,7.2-1,3.13-.7,3.4.67-.17,1.6-.9,2.1-1.7,3.5-2.9,3-2.6,4.8-4.2,3.57-3.27,5.3-5Q258,78.19,266,70.4a8.54,8.54,0,0,1,4.4,1.8,3.46,3.46,0,0,1,1.2,2.4,4.33,4.33,0,0,1-.8,2.4,8.52,8.52,0,0,1-1.8,2c-1.33,1.33-2.87,2.8-4.6,4.4s-3.4,3.14-5,4.6-3.07,2.83-4.4,4.1S252.63,94.33,251.83,95Z"/><path class="cls-1" d="M289.23,51.6a9.83,9.83,0,0,1,6.4,2.3,14.78,14.78,0,0,1,4.2,5.5,11.34,11.34,0,0,1,2.2-1.5,4.87,4.87,0,0,1,2.2-.5,5,5,0,0,1,2.2.6,9.35,9.35,0,0,1,2.7,2.2c1.13,1.2,1.63,1.93,1.5,2.2a.78.78,0,0,0,.2.6,1.43,1.43,0,0,1,.3.7,4.6,4.6,0,0,1-.2,1.7,19.93,19.93,0,0,1-1.5,3.6q-2,3.81-4.3,8.6t-4.4,9.1c-1.4,2.87-2.54,5.3-3.4,7.3s-1.24,3.07-1.1,3.2q5.59-5.81,9.5-10t8-8.9l6.9-7.9a10.67,10.67,0,0,1,4.8,1.1,3.23,3.23,0,0,1,1.6,2.2,4.55,4.55,0,0,1-.7,2.9,19.34,19.34,0,0,1-2.3,3.2q-6.21,7-10.6,12.2t-7.7,8.7a28.87,28.87,0,0,1-6.2,5.2,12.21,12.21,0,0,1-6.3,1.7h-.8q-4.6,0-6.5-1.9a6.83,6.83,0,0,1-2-4.8,17.88,17.88,0,0,1,1.1-6.4q1.2-3.5,2.5-6.5t2.4-5.1c.73-1.4,1-2.17.9-2.3-3.07,2.94-5.67,5.33-7.8,7.2s-4.24,3.67-6.3,5.4a19.52,19.52,0,0,1-4.7,3.2,11.27,11.27,0,0,1-11.2-1.1c-2-1.4-3.14-2.9-3.4-4.5a14.22,14.22,0,0,1,1.1-5.7A68.6,68.6,0,0,1,262,77a66.32,66.32,0,0,1,5.4-8.9,69.34,69.34,0,0,1,6.8-8.2,35.92,35.92,0,0,1,7.5-6A14.82,14.82,0,0,1,289.23,51.6Zm1,10.8a109.32,109.32,0,0,0-9.1,11.3,26.9,26.9,0,0,0-2.7,4.5c1.33-1.07,2.46-2,3.4-2.9s1.93-1.76,3-2.7,1.86-1.67,2.4-2.2a9.63,9.63,0,0,0,.9-1,5.42,5.42,0,0,0,.6-1.1,12.32,12.32,0,0,0,.6-2.1C289.53,65.27,289.83,64,290.23,62.4Z"/><path class="cls-1" d="M330.43,91c-.14.93-.27,2.1-.4,3.5s-.07,2.23.2,2.5.9-.3,2.3-1.3,3.13-2.33,5.2-4,4.33-3.53,6.8-5.6l7.3-6.1,6.7-5.6c2.06-1.73,3.63-3.07,4.7-4q4.59.41,5.9,2.7t-3.7,6.7Q357,87,349.13,93.4t-13.7,8.4c-1.34.4-2.67.74-4,1a19.2,19.2,0,0,1-3.8.4,14.14,14.14,0,0,1-10-3.7C315,97,313.76,93.13,314,87.8a34.33,34.33,0,0,1,3.5-11.6,65.14,65.14,0,0,1,7.7-12.5,52.74,52.74,0,0,1,10.1-10q5.49-4.1,10.5-4.1a9,9,0,0,1,1.9.2,11.77,11.77,0,0,1,1.9.6,11.38,11.38,0,0,1,4.9,3.5c1.4,1.67,2,3,1.9,4.1a9.45,9.45,0,0,1-.7,2.9,14.84,14.84,0,0,1-1.1,2.5,2.71,2.71,0,0,1-1.8.4,14.29,14.29,0,0,1-5.2-1q-1,1-3.3,3.9c-1.54,1.93-3.2,4.2-5,6.8a90.76,90.76,0,0,0-5.2,8.5A42.09,42.09,0,0,0,330.43,91Z"/><path class="cls-1" d="M395,49a10.48,10.48,0,0,1,5.5,6.6,16,16,0,0,1-.3,8.8,24.91,24.91,0,0,1-4.7,8.6,23.07,23.07,0,0,1-7.9,6.2,14.41,14.41,0,0,1-5.2,1.2,8.11,8.11,0,0,1-4.5-1.1q-1.71-1.1-2.1-.9-1.6,2.8-2.6,4.9t-2,4.8a39.28,39.28,0,0,0-1.6,5.5c-.27,1.33,0,2,.8,2a8,8,0,0,0,3.2-1.2c1.46-.8,3.7-2.17,6.7-4.1s6.83-4.53,11.5-7.8,10.4-7.3,17.2-12.1c3.06.53,4.9,1.87,5.5,4s-.84,4.47-4.3,7q-8,5.8-13.7,9.9c-3.8,2.74-7.1,4.93-9.9,6.6a39.07,39.07,0,0,1-7.5,3.6,20,20,0,0,1-6.3,1.1,18.27,18.27,0,0,1-8.7-2.3,11.23,11.23,0,0,1-5.7-6.7c-.4-1.2-.47-3.56-.2-7.1a39.51,39.51,0,0,1,2.6-11.1,55.65,55.65,0,0,1,5.3-10,56.84,56.84,0,0,1,7.2-8.9,40.25,40.25,0,0,1,8.2-6.4,16.46,16.46,0,0,1,8.3-2.5A11.78,11.78,0,0,1,395,49Zm-14.8,23.2a5.1,5.1,0,0,0,2.8-1.6,32.38,32.38,0,0,0,3.6-3.8c1.2-1.47,2.26-2.9,3.2-4.3s1.53-2.37,1.8-2.9l.2-.4V59c.13,0-.47.54-1.8,1.6-.14.13-.8.83-2,2.1s-2.44,2.6-3.7,4S382,69.37,381,70.5,379.83,72.2,380.23,72.2Z"/><path class="cls-1" d="M414,57.4a9.62,9.62,0,0,1,1.2-.8,5.07,5.07,0,0,1,1.8-.2,8.19,8.19,0,0,1,4.5,1.1,11.8,11.8,0,0,1,3.3,3.5,11.52,11.52,0,0,1,1.2,1.9,1.58,1.58,0,0,1-.2,1.3c-.13.67-.06.87.2.6q6-4.61,9.3-7.3t5.1-4.2a27.94,27.94,0,0,1,2.6-2,3.39,3.39,0,0,1,1.8-.5,6.69,6.69,0,0,1,4.8,2.2,18.66,18.66,0,0,1,1.5,2,4,4,0,0,1,.6,1.3c.07.33.14.67.2,1a6,6,0,0,0,.5,1.3,4.41,4.41,0,0,1,.3,2.1,14.66,14.66,0,0,1-1.1,3.6q-1,2.51-3.5,7.3t-6.9,13.2q-1.59,2.81-3.2,5.8c-1.06,2-2,3.87-2.8,5.6s-1.46,3.17-2,4.3a11.76,11.76,0,0,0-.8,1.9c0,.27.67-.27,2-1.6s3-3.07,5.1-5.2,4.34-4.53,6.8-7.2,4.84-5.2,7.1-7.6,4.27-4.57,6-6.5,2.94-3.23,3.6-3.9q6.21,1.2,6.6,3.5a6.25,6.25,0,0,1-1.6,4.9l-1.8,1.9q-1.59,1.69-3.9,4.4t-5.2,5.8q-2.89,3.1-5.6,6.1c-1.8,2-3.46,3.8-5,5.4s-2.76,2.87-3.7,3.8a55.92,55.92,0,0,1-7.3,5.1,15.76,15.76,0,0,1-8.1,2.3,15.35,15.35,0,0,1-4-.6q-4.4-1.6-5.5-4t.3-7.6a59.57,59.57,0,0,1,2.9-8.2q1.9-4.4,3.7-8.1t4.2-8.7a8,8,0,0,0-2.8,1.5,9.71,9.71,0,0,1-5.6,1.5,14.08,14.08,0,0,1-7.9-2.6,8.19,8.19,0,0,1-3.9-7.2,12.13,12.13,0,0,1,.4-2.8,21.46,21.46,0,0,1,1.2-3.4c.54-1.2,1.1-2.33,1.7-3.4A12.15,12.15,0,0,1,414,57.4Z"/><path class="cls-1" d="M493.42,92.2a37.45,37.45,0,0,1,3-9.7,74.79,74.79,0,0,1,6.5-12,48.16,48.16,0,0,1,8.8-10.1q4.9-4.2,10.1-4.2,4.6,0,9,4.2l1.6,1.6c.8-1.07,2-2.73,3.6-5s3.43-4.9,5.5-7.9,4.23-6.17,6.5-9.5,4.43-6.56,6.5-9.7,4-6.07,5.7-8.8,3.07-4.9,4-6.5q2.4-4.39,3.7-6.3c.87-1.26,1.5-2,1.9-2.1a7.09,7.09,0,0,1,6.4,1.6c1.2,1.2,1.73,2,1.6,2.4a1.82,1.82,0,0,1,.2.8,1.79,1.79,0,0,0,.2.8c.27.53.07,1.74-.6,3.6s-1.57,4-2.7,6.5-2.4,5.14-3.8,8-2.77,5.57-4.1,8.1-2.5,4.73-3.5,6.6-1.63,3.07-1.9,3.6q-6.2,11.4-11.9,23t-9.9,21.1q-4.2,9.49-6.4,15.6c-1.47,4.07-2.07,6.23-1.8,6.5q0,.21,9.2-11.8t26-32.2a12.83,12.83,0,0,1,4.9,1,3.23,3.23,0,0,1,1.8,2,3.7,3.7,0,0,1-.4,2.6,13.53,13.53,0,0,1-1.7,2.6q-3,4-7.5,9.8T555,99.8q-4.39,5.61-7.9,10t-4.7,5.6a32.25,32.25,0,0,1-8.3,7.4,16.61,16.61,0,0,1-8.3,2.2,11.76,11.76,0,0,1-3.3-.5,6.19,6.19,0,0,1-2.7-1.5q-1.8-1.6-1.4-6a66.54,66.54,0,0,1,1.6-9.4,98.61,98.61,0,0,1,2.9-9.8q1.7-4.8,2.7-7.4c.93-2.67,1.47-4,1.6-4-.27,0-1.13.93-2.6,2.8a82.38,82.38,0,0,1-7.6,8.4,31.06,31.06,0,0,1-5.8,4.6,14.19,14.19,0,0,1-6.8,1.6,13,13,0,0,1-8.4-2.9Q492.42,98,493.42,92.2Zm26.8-13.8c1.33-1.73,2.27-3,2.8-3.7a7.09,7.09,0,0,0,1-1.7,2.46,2.46,0,0,0,.1-1.2,15.3,15.3,0,0,1-.1-2.2V68l-.2.2c0,.13-.13.34-.4.6s-1.27,1.83-3,4.3-3.53,5.17-5.4,8.1-3.5,5.57-4.9,7.9-2,3.5-1.7,3.5,1.3-1.06,3.1-3.2S516.22,83.6,520.22,78.4Z"/><path class="cls-1" d="M598.62,49a10.48,10.48,0,0,1,5.5,6.6,16,16,0,0,1-.3,8.8,24.91,24.91,0,0,1-4.7,8.6,23.07,23.07,0,0,1-7.9,6.2,14.41,14.41,0,0,1-5.2,1.2,8.11,8.11,0,0,1-4.5-1.1q-1.71-1.1-2.1-.9-1.6,2.8-2.6,4.9t-2,4.8a39.28,39.28,0,0,0-1.6,5.5c-.27,1.33,0,2,.8,2a8,8,0,0,0,3.2-1.2c1.46-.8,3.7-2.17,6.7-4.1s6.83-4.53,11.5-7.8,10.4-7.3,17.2-12.1c3.06.53,4.9,1.87,5.5,4s-.84,4.47-4.3,7q-8,5.8-13.7,9.9c-3.8,2.74-7.1,4.93-9.9,6.6a39.07,39.07,0,0,1-7.5,3.6,20,20,0,0,1-6.3,1.1,18.27,18.27,0,0,1-8.7-2.3,11.23,11.23,0,0,1-5.7-6.7c-.4-1.2-.47-3.56-.2-7.1a39.51,39.51,0,0,1,2.6-11.1,55.65,55.65,0,0,1,5.3-10,56.84,56.84,0,0,1,7.2-8.9,40.25,40.25,0,0,1,8.2-6.4,16.46,16.46,0,0,1,8.3-2.5A11.78,11.78,0,0,1,598.62,49Zm-14.8,23.2a5.1,5.1,0,0,0,2.8-1.6,32.38,32.38,0,0,0,3.6-3.8c1.2-1.47,2.26-2.9,3.2-4.3s1.53-2.37,1.8-2.9l.2-.4V59c.13,0-.47.54-1.8,1.6-.14.13-.8.83-2,2.1s-2.44,2.6-3.7,4-2.37,2.67-3.3,3.8S583.42,72.2,583.82,72.2Z"/><path class="cls-1" d="M634.22,95a62.75,62.75,0,0,1-10.6,7.5,26.8,26.8,0,0,1-8.4,2.9c-.94,0-2,0-3.1-.1a16,16,0,0,1-3.2-.5,6,6,0,0,1-2.6-1.4,5.11,5.11,0,0,1-1.5-2.8c-.4-1.73-.14-4.77.8-9.1a122.53,122.53,0,0,1,5-16.2q3.6-9.7,9.4-22.2t14-26.9q5.79-10.2,8.9-15.5t4.8-7.7c1.13-1.6,2-2.5,2.5-2.7a5.73,5.73,0,0,1,2-.3,8,8,0,0,1,3.6.8,7.51,7.51,0,0,1,2.6,2.1,10.87,10.87,0,0,1,1.5,2.6,6.33,6.33,0,0,1,.5,2.1,26.65,26.65,0,0,1-1.8,5.8q-1.61,4-4,8.9t-5.1,10.3q-2.7,5.4-5.1,10t-4.3,8c-1.27,2.27-2.1,3.73-2.5,4.4s-1.17,2.37-2.3,4.7-2.47,5-4,8-3.07,6.17-4.6,9.5-2.94,6.4-4.2,9.2-2.27,5.2-3,7.2-1,3.13-.7,3.4.66-.17,1.6-.9,2.1-1.7,3.5-2.9,3-2.6,4.8-4.2,3.56-3.27,5.3-5q6.39-5.81,14.4-13.6a8.54,8.54,0,0,1,4.4,1.8,3.46,3.46,0,0,1,1.2,2.4,4.33,4.33,0,0,1-.8,2.4,9,9,0,0,1-1.8,2q-2,2-4.6,4.4c-1.74,1.6-3.4,3.14-5,4.6s-3.07,2.83-4.4,4.1S635,94.33,634.22,95Z"/><path class="cls-2" d="M74.73,185.91v5.57c0,16-4.9,26.26-15.81,31.38,13.13,5.12,18.25,16.92,18.25,33.39v12.68c0,24-12.68,36.95-37.17,36.95H1.5V150.08h37C63.82,150.08,74.73,161.88,74.73,185.91ZM26,172.34v41.17h9.57c9.13,0,14.69-4,14.69-16.47v-8.68c0-11.13-3.78-16-12.46-16Zm0,63.43v47.85H40c8.24,0,12.69-3.78,12.69-15.35V254.69c0-14.47-4.67-18.92-15.8-18.92Z"/><path class="cls-2" d="M115.23,150.08V270.27c0,11.13,4.9,15.13,12.69,15.13s12.69-4,12.69-15.13V150.08h23.14V268.71c0,24.93-12.46,39.17-36.5,39.17s-36.5-14.24-36.5-39.17V150.08Z"/><path class="cls-2" d="M204.93,215.74h33.61V238H204.93v45.62h42.29v22.26H180.45V150.08h66.77v22.26H204.93Z"/><path class="cls-2" d="M284.17,193V305.88h-22V150.08h30.72L318,243.34V150.08h21.81v155.8H314.66Z"/><path class="cls-2" d="M424.83,148.3c23.81,0,36.06,14.24,36.06,39.17v4.9H437.74v-6.46c0-11.12-4.45-15.35-12.24-15.35s-12.24,4.23-12.24,15.35c0,32.05,47.85,38.06,47.85,82.58,0,24.93-12.47,39.17-36.5,39.17s-36.5-14.24-36.5-39.17v-9.57h23.14v11.13c0,11.13,4.9,15.13,12.69,15.13s12.69-4,12.69-15.13c0-32.05-47.86-38.06-47.86-82.58C388.77,162.54,401,148.3,424.83,148.3Z"/><path class="cls-2" d="M554.37,305.88H529.66l-4.23-28.27h-30l-4.22,28.27H468.68l24.92-155.8h35.84ZM498.5,256.47h23.59L510.3,177.68Z"/><path class="cls-2" d="M638.94,185.91v5.57c0,16-4.89,26.26-15.8,31.38,13.13,5.12,18.25,16.92,18.25,33.39v12.68c0,24-12.68,36.95-37.17,36.95h-38.5V150.08h36.94C628,150.08,638.94,161.88,638.94,185.91ZM590.2,172.34v41.17h9.57c9.13,0,14.69-4,14.69-16.47v-8.68c0-11.13-3.78-16-12.46-16Zm0,63.43v47.85h14c8.24,0,12.69-3.78,12.69-15.35V254.69c0-14.47-4.68-18.92-15.8-18.92Z"/><path class="cls-2" d="M654.08,187.47c0-24.93,13.13-39.17,37.17-39.17s37.17,14.24,37.17,39.17v81c0,24.93-13.14,39.17-37.17,39.17s-37.17-14.24-37.17-39.17Zm24.48,82.58c0,11.13,4.9,15.35,12.69,15.35s12.68-4.22,12.68-15.35V185.91c0-11.12-4.89-15.35-12.68-15.35s-12.69,4.23-12.69,15.35Z"/><path class="cls-2" d="M795.41,305.88c-1.33-4-2.23-6.45-2.23-19.14V262.26c0-14.47-4.89-19.81-16-19.81H768.7v63.43H744.22V150.08h36.95c25.37,0,36.28,11.8,36.28,35.83v12.25c0,16-5.12,26.48-16,31.6,12.24,5.12,16.25,16.92,16.25,33.16v24c0,7.57.22,13.13,2.67,18.92ZM768.7,172.34v47.85h9.57c9.13,0,14.69-4,14.69-16.47V188.36c0-11.13-3.78-16-12.46-16Z"/><rect class="cls-1" x="2.63" y="495.95" width="92.29" height="252.39" rx="46.15"/><path class="cls-3" d="M68.83,684.67v.84s0,.28-.14.28H66v-1.26l-.42-3.35c-.14-.42-.14-.7-.28-1.12a8,8,0,0,0-.7-1.95v-.28c-.42-.7-.7-1.4-1.12-2.1l-.84-1.25-.14-.28a18.39,18.39,0,0,0-4.74-4.61,7.81,7.81,0,0,0-1.12-.7,15.3,15.3,0,0,0-2.1-1.12h0a20.18,20.18,0,0,0-3.21-1.11,21.41,21.41,0,0,0-4.19-.56H46.9v-2.38c0-.42,0-.42.42-.42H49.7a.41.41,0,0,1,.55,0,25.88,25.88,0,0,1,4.47,1.12A22.85,22.85,0,0,1,64.92,672h0c.14.14.28.42.42.56a12.69,12.69,0,0,1,1.11,1.82,16.89,16.89,0,0,1,2,4.6.89.89,0,0,1,0,.84A26,26,0,0,1,69,683l-.14,1.68Z"/><path class="cls-3" d="M23.58,672.66v-.56a2,2,0,0,1,.28-1,2.89,2.89,0,0,1,.56-.83l2.65-2.66c.28-.28.7-.56,1-.84a5.31,5.31,0,0,1,1.26-.55l.84-.14H31.4l1.12.28A6,6,0,0,1,36,669.59a6.86,6.86,0,0,1,.56,1.81c.42,1.4.84,2.94,1.12,4.33a5.81,5.81,0,0,1-.56,4c-.28.42-.56.7-.84,1.12a15.33,15.33,0,0,1-1.54,1.4c-.28.14-.28.55-.14.83l.56,1.68a24.15,24.15,0,0,0,3.35,5.73c.28.27.42.55.7.83A21.88,21.88,0,0,0,45,695.84a14,14,0,0,0,2.09,1c.56.28,1.26.42,1.82.7a.43.43,0,0,0,.56,0L51,696a5.38,5.38,0,0,1,4.19-1.67,8.08,8.08,0,0,1,2,.41h.28l4,1.12h.42a5.62,5.62,0,0,1,3.63,4c.14.28.14.56.28.84V703a5.86,5.86,0,0,1-1.54,2.52L62,707.71a2.51,2.51,0,0,1-1,.7,3.65,3.65,0,0,1-1.54.42H57a9.53,9.53,0,0,1-2.8-.28c-1-.28-1.95-.28-2.93-.56a34.41,34.41,0,0,1-5.3-1.67l-.56-.28-1-.42-2.51-1.26a26.55,26.55,0,0,1-3.22-2.09c-.83-.7-1.81-1.4-2.65-2.1s-1.81-1.67-2.65-2.51-1.4-1.68-2.1-2.52l-.56-.69c-.14-.14-.14-.28-.28-.42-.69-1-1.39-2.1-2.09-3.22-.42-.83-.84-1.53-1.26-2.37l-.42-.84c-.14-.28-.69-1.67-1-2.51a30.89,30.89,0,0,1-1-3.35v-.84a2.52,2.52,0,0,0-.28-1.4c-.28-.42,0-.56,0-.84s-.14-1.67-.28-2.51V672.8Z"/><path class="cls-3" d="M46.21,674.48v-2.66c0-.14,0-.28.27-.28h2.1a.89.89,0,0,1,.84,0,16.67,16.67,0,0,1,2.79,1A14.34,14.34,0,0,1,60,682.16h0a.41.41,0,0,1,0,.55v2c0,.7,0,.56-.42.42H57.24V683A2.51,2.51,0,0,0,57,681.6,10.12,10.12,0,0,0,54,677a11.13,11.13,0,0,0-4.47-2.65,4.09,4.09,0,0,0-1.26-.28H46.62Z"/><path class="cls-3" d="M46.62,683c-.28,0-.41-.28-.41-.55v-2.38a6.33,6.33,0,0,1,2.23.42c.28,0,.42,0,.56.28s.28.14.42.28a5.28,5.28,0,0,1,1.25,1.26,7.67,7.67,0,0,1,.7,1.11,3.88,3.88,0,0,1,.42,1.82v.42H49.42c-.42,0-.42,0-.42-.42a2.84,2.84,0,0,0-2.1-2.38l-.28.14Z"/><path class="cls-3" d="M63.93,537.31a18.16,18.16,0,0,0-9.67-4.64,18.63,18.63,0,0,1-3.09-.39H46a19.34,19.34,0,0,0-4.64.58,22.58,22.58,0,0,0-14.88,21.26,26.52,26.52,0,0,0,3.09,12.75A66,66,0,0,0,44.8,587.35a6,6,0,0,0,3.28,1.74h1.74a5,5,0,0,0,2.51-1.16c1.93-1.74,3.67-3.48,5.41-5a63.65,63.65,0,0,0,9.08-12.37,32.9,32.9,0,0,0,4.83-15.26,22,22,0,0,0-7.92-18.36Zm-14.69,28.4a11.11,11.11,0,1,1,11.21-11,10.94,10.94,0,0,1-11.21,11Z"/><rect class="cls-3" x="24.6" y="622.03" width="48.94" height="3.57"/><path class="cls-1" d="M117.56,540.12q3.76-3.14,9.91-3.13a16.32,16.32,0,0,1,7.19,1.46,10.26,10.26,0,0,1,6,9.63,9.92,9.92,0,0,1-1.87,6.12,9.21,9.21,0,0,1-4.45,3.36v.23a9.68,9.68,0,0,1,5.2,3.67,11.55,11.55,0,0,1,1.87,6.78,12,12,0,0,1-1.58,6.15,10.77,10.77,0,0,1-4.66,4.22,18.63,18.63,0,0,1-17.95-1.75q-4.08-3.27-4.31-9.65h7.81a6.26,6.26,0,0,0,1.93,4.51,7,7,0,0,0,5,1.69,6,6,0,0,0,4.51-1.63,5.85,5.85,0,0,0,1.58-4.23q0-3.43-2.19-4.94t-6.78-1.49h-1.66v-6.61h1.66q8.16,0,8.16-5.46a5.06,5.06,0,0,0-1.46-3.85,6,6,0,0,0-4.23-1.37,5.61,5.61,0,0,0-4.16,1.46,6,6,0,0,0-1.7,3.71h-7.87A11.72,11.72,0,0,1,117.56,540.12Z"/><path class="cls-1" d="M150.34,570.77q5.52-4.59,8.79-7.67a35.94,35.94,0,0,0,5.46-6.4,12,12,0,0,0,2.18-6.55,7,7,0,0,0-1.38-4.6,5.2,5.2,0,0,0-4.25-1.67,5.36,5.36,0,0,0-4.42,1.93,8.34,8.34,0,0,0-1.61,5.25H147.3q.22-6.88,4.1-10.45a14,14,0,0,1,9.86-3.56q6.54,0,10.05,3.47a12.33,12.33,0,0,1,3.51,9.17,16.58,16.58,0,0,1-2.42,8.56,34.11,34.11,0,0,1-5.51,7.09q-3.1,3-8.1,7.27h16.94v6.66H147.35v-6Z"/><path class="cls-1" d="M184.38,542.79q3.59-5.62,11.92-5.63t11.92,5.63q3.6,5.64,3.59,15.57t-3.59,15.69q-3.58,5.69-11.92,5.68t-11.92-5.68q-3.58-5.7-3.59-15.69T184.38,542.79Zm19,8.42a9.57,9.57,0,0,0-2.18-4.74,7.33,7.33,0,0,0-9.71,0,9.67,9.67,0,0,0-2.19,4.74,39.91,39.91,0,0,0-.54,7.15,43.09,43.09,0,0,0,.52,7.33,9.19,9.19,0,0,0,2.18,4.77,7.53,7.53,0,0,0,9.77,0,9.27,9.27,0,0,0,2.18-4.77,44.15,44.15,0,0,0,.52-7.33A39.8,39.8,0,0,0,203.34,551.21Z"/><path class="cls-1" d="M222.07,540.12Q225.84,537,232,537a16.27,16.27,0,0,1,7.18,1.46,10.26,10.26,0,0,1,6,9.63,10,10,0,0,1-1.86,6.12,9.23,9.23,0,0,1-4.46,3.36v.23a9.65,9.65,0,0,1,5.2,3.67,11.48,11.48,0,0,1,1.87,6.78,12,12,0,0,1-1.58,6.15,10.69,10.69,0,0,1-4.65,4.22,18.65,18.65,0,0,1-18-1.75q-4.08-3.27-4.31-9.65h7.82a6.25,6.25,0,0,0,1.92,4.51,7,7,0,0,0,5,1.69,6,6,0,0,0,4.51-1.63,5.85,5.85,0,0,0,1.58-4.23q0-3.43-2.18-4.94t-6.78-1.49h-1.67v-6.61h1.67q8.16,0,8.16-5.46A5,5,0,0,0,236,545.2a6,6,0,0,0-4.22-1.37,5.64,5.64,0,0,0-4.17,1.46,5.94,5.94,0,0,0-1.69,3.71H218A11.72,11.72,0,0,1,222.07,540.12Z"/><path class="cls-1" d="M263.72,572a6.7,6.7,0,0,0,4.4,1.35,5.46,5.46,0,0,0,5.17-3q1.6-3,1.61-10a8.68,8.68,0,0,1-3.71,2.88,12.93,12.93,0,0,1-5.14,1,14.39,14.39,0,0,1-6.64-1.52,11.3,11.3,0,0,1-4.68-4.54,14.53,14.53,0,0,1-1.72-7.33q0-6.37,3.79-10.14T267.14,537q8.16,0,11.52,5.23T282,558a48.05,48.05,0,0,1-1.29,12.24,13.3,13.3,0,0,1-4.43,7.24c-2.08,1.64-4.93,2.47-8.53,2.47a14.9,14.9,0,0,1-7.24-1.64A11.65,11.65,0,0,1,256,574a13.12,13.12,0,0,1-1.81-5.89h7.47A6.23,6.23,0,0,0,263.72,572Zm8.71-16.06a6.91,6.91,0,0,0,1.72-4.94,7.24,7.24,0,0,0-1.81-5.26,6.53,6.53,0,0,0-4.91-1.86,6.41,6.41,0,0,0-4.91,1.92,8,8,0,0,0-.06,10,6.74,6.74,0,0,0,5.26,1.93A6.13,6.13,0,0,0,272.43,555.89Z"/><path class="cls-1" d="M292.45,540.12q3.76-3.14,9.91-3.13a16.27,16.27,0,0,1,7.18,1.46,10.26,10.26,0,0,1,6,9.63,10,10,0,0,1-1.86,6.12,9.23,9.23,0,0,1-4.46,3.36v.23a9.65,9.65,0,0,1,5.2,3.67,11.48,11.48,0,0,1,1.87,6.78,12,12,0,0,1-1.58,6.15,10.74,10.74,0,0,1-4.65,4.22,18.65,18.65,0,0,1-18-1.75q-4.08-3.27-4.31-9.65h7.82a6.21,6.21,0,0,0,1.92,4.51,7,7,0,0,0,5,1.69,6,6,0,0,0,4.51-1.63,5.85,5.85,0,0,0,1.58-4.23q0-3.43-2.18-4.94t-6.78-1.49H298v-6.61h1.67q8.16,0,8.16-5.46a5,5,0,0,0-1.47-3.85,6,6,0,0,0-4.22-1.37,5.64,5.64,0,0,0-4.17,1.46,5.94,5.94,0,0,0-1.69,3.71H288.4A11.72,11.72,0,0,1,292.45,540.12Z"/><path class="cls-1" d="M326.86,540.12q3.76-3.14,9.91-3.13a16.24,16.24,0,0,1,7.18,1.46,10.47,10.47,0,0,1,4.51,4,10.6,10.6,0,0,1,1.53,5.66,10,10,0,0,1-1.87,6.12,9.25,9.25,0,0,1-4.45,3.36v.23a9.68,9.68,0,0,1,5.2,3.67,11.55,11.55,0,0,1,1.86,6.78,11.88,11.88,0,0,1-1.58,6.15,10.69,10.69,0,0,1-4.65,4.22,18.63,18.63,0,0,1-17.95-1.75q-4.08-3.27-4.31-9.65h7.81a6.26,6.26,0,0,0,1.93,4.51,7,7,0,0,0,5,1.69,6,6,0,0,0,4.51-1.63,5.85,5.85,0,0,0,1.58-4.23q0-3.43-2.19-4.94t-6.78-1.49h-1.66v-6.61h1.66q8.16,0,8.16-5.46a5.06,5.06,0,0,0-1.46-3.85,6,6,0,0,0-4.23-1.37,5.6,5.6,0,0,0-4.16,1.46,6,6,0,0,0-1.7,3.71h-7.87A11.72,11.72,0,0,1,326.86,540.12Z"/><path class="cls-1" d="M356.77,571.69v-6.32l18.78-26.89h9.37v26.2H390v7h-5.05v8.16h-8.05v-8.16Zm20.62-24.59-11.78,17.58h11.78Z"/><path class="cls-1" d="M423.24,544.92H404.62v9.82a8.77,8.77,0,0,1,3.45-2.44,12.16,12.16,0,0,1,4.77-.95,13.07,13.07,0,0,1,7.53,2,11.65,11.65,0,0,1,4.25,5.15,17,17,0,0,1,1.32,6.69q0,6.6-3.76,10.63t-10.72,4q-6.56,0-10.46-3.28a12.3,12.3,0,0,1-4.42-8.56h7.81a6.17,6.17,0,0,0,2.33,3.68,7.43,7.43,0,0,0,4.63,1.38,6.18,6.18,0,0,0,5.11-2.13,8.64,8.64,0,0,0,1.72-5.63,7.66,7.66,0,0,0-1.75-5.43,6.73,6.73,0,0,0-5.14-1.86,6.29,6.29,0,0,0-6.32,4.42h-7.7V537.85h26Z"/><path class="cls-1" d="M460.24,544.92H441.62v9.82a8.77,8.77,0,0,1,3.45-2.44,12.12,12.12,0,0,1,4.77-.95,13.07,13.07,0,0,1,7.53,2,11.65,11.65,0,0,1,4.25,5.15,17,17,0,0,1,1.32,6.69q0,6.6-3.76,10.63t-10.72,4q-6.56,0-10.46-3.28a12.27,12.27,0,0,1-4.42-8.56h7.81a6.17,6.17,0,0,0,2.33,3.68,7.43,7.43,0,0,0,4.63,1.38,6.2,6.2,0,0,0,5.11-2.13,8.64,8.64,0,0,0,1.72-5.63,7.66,7.66,0,0,0-1.75-5.43,6.73,6.73,0,0,0-5.14-1.86,6.29,6.29,0,0,0-6.32,4.42h-7.7V537.85h26Z"/><path class="cls-4" d="M116.78,595.26a9.59,9.59,0,0,1,6.33-2,9.89,9.89,0,0,1,4.43.92,6.6,6.6,0,0,1,2.79,2.52,7.06,7.06,0,0,1,.94,3.6,6.54,6.54,0,0,1-1.42,4.2,6.24,6.24,0,0,1-4,2.19v.19a7.51,7.51,0,0,1,4.35,2.37,7,7,0,0,1,1.62,4.79,7.14,7.14,0,0,1-2.21,5.41c-1.48,1.4-3.61,2.1-6.41,2.1a10.08,10.08,0,0,1-6.58-2.1,8.34,8.34,0,0,1-3-5.95h2.61a6.53,6.53,0,0,0,2.16,4.18,6.94,6.94,0,0,0,4.77,1.59,6.13,6.13,0,0,0,4.48-1.53,5.3,5.3,0,0,0,1.56-3.93q0-5.85-8.43-5.85h-.84v-2.27h.88q7.86,0,7.85-5.12a4.71,4.71,0,0,0-1.46-3.6,5.87,5.87,0,0,0-4.16-1.36A6.75,6.75,0,0,0,118.7,597a5.58,5.58,0,0,0-2,3.83h-2.61A7.59,7.59,0,0,1,116.78,595.26Z"/><path class="cls-4" d="M135.39,596.17v-2.43h6.54v27.59H139.2V596.17Z"/><path class="cls-4" d="M149.64,604.59a6.45,6.45,0,0,1-1.25-4,6.73,6.73,0,0,1,1.06-3.71,7.18,7.18,0,0,1,3.1-2.58,13.16,13.16,0,0,1,9.77,0,7.12,7.12,0,0,1,3.1,2.58,6.65,6.65,0,0,1,1.06,3.71,6.57,6.57,0,0,1-1.25,4,6.86,6.86,0,0,1-3.64,2.43,7.41,7.41,0,0,1,4.12,2.5,6.9,6.9,0,0,1,1.5,4.5,7.57,7.57,0,0,1-1.21,4.29,7.9,7.9,0,0,1-3.43,2.83,13.68,13.68,0,0,1-10.27,0,7.9,7.9,0,0,1-3.43-2.83,7.65,7.65,0,0,1-1.21-4.29,6.9,6.9,0,0,1,1.5-4.5,7.44,7.44,0,0,1,4.12-2.5A7.19,7.19,0,0,1,149.64,604.59Zm2.64,5a5,5,0,0,0-2,4.31,5.32,5.32,0,0,0,1.92,4.35,8,8,0,0,0,5.24,1.58,7.84,7.84,0,0,0,5.19-1.6,5.33,5.33,0,0,0,1.93-4.33,5,5,0,0,0-2-4.29,8.51,8.51,0,0,0-5.13-1.44A8.74,8.74,0,0,0,152.28,609.63ZM162.13,597a7.32,7.32,0,0,0-4.69-1.38,7.4,7.4,0,0,0-4.7,1.36A4.75,4.75,0,0,0,151,600.9a4.64,4.64,0,0,0,1.77,3.81,8.34,8.34,0,0,0,9.31,0,4.64,4.64,0,0,0,1.77-3.81A4.74,4.74,0,0,0,162.13,597Z"/><path class="cls-4" d="M182.35,609.69q3.87-4.22,3.87-8.25a6.45,6.45,0,0,0-1.33-4.26c-.88-1.06-2.32-1.59-4.33-1.59a5.68,5.68,0,0,0-4.52,1.83,7.94,7.94,0,0,0-1.79,4.86h-2.61a9.64,9.64,0,0,1,2.63-6.63,9.64,9.64,0,0,1,12.34-.27,7.6,7.6,0,0,1,2.31,5.94c0,3.11-1.29,6.11-3.87,9a60.28,60.28,0,0,1-9.53,8.52h14.24v2.27H171.41v-1.92A80.63,80.63,0,0,0,182.35,609.69Z"/><path class="cls-4" d="M195.67,604.59a6.45,6.45,0,0,1-1.25-4,6.65,6.65,0,0,1,1.06-3.71,7.09,7.09,0,0,1,3.09-2.58,13.19,13.19,0,0,1,9.78,0,7.18,7.18,0,0,1,3.1,2.58,6.73,6.73,0,0,1,1.06,3.71,6.51,6.51,0,0,1-1.26,4,6.83,6.83,0,0,1-3.63,2.43,7.44,7.44,0,0,1,4.12,2.5,6.9,6.9,0,0,1,1.5,4.5,7.58,7.58,0,0,1-1.22,4.29,7.87,7.87,0,0,1-3.42,2.83,13.71,13.71,0,0,1-10.28,0,7.93,7.93,0,0,1-3.42-2.83,7.57,7.57,0,0,1-1.21-4.29,6.9,6.9,0,0,1,1.5-4.5,7.41,7.41,0,0,1,4.12-2.5A7.11,7.11,0,0,1,195.67,604.59Zm2.64,5a4.94,4.94,0,0,0-2,4.31,5.33,5.33,0,0,0,1.93,4.35,8,8,0,0,0,5.23,1.58,7.88,7.88,0,0,0,5.2-1.6,5.32,5.32,0,0,0,1.92-4.33,5,5,0,0,0-2-4.29,8.52,8.52,0,0,0-5.14-1.44A8.73,8.73,0,0,0,198.31,609.63ZM208.16,597a8.73,8.73,0,0,0-9.39,0A4.72,4.72,0,0,0,197,600.9a4.64,4.64,0,0,0,1.77,3.81,8.34,8.34,0,0,0,9.31,0,4.64,4.64,0,0,0,1.77-3.81A4.77,4.77,0,0,0,208.16,597Z"/><path class="cls-4" d="M220.57,595.26a9.59,9.59,0,0,1,6.33-2,9.84,9.84,0,0,1,4.42.92,6.6,6.6,0,0,1,2.79,2.52,7,7,0,0,1,.95,3.6,6.5,6.5,0,0,1-1.43,4.2,6.21,6.21,0,0,1-4,2.19v.19a7.57,7.57,0,0,1,4.35,2.37,7,7,0,0,1,1.62,4.79,7.11,7.11,0,0,1-2.22,5.41c-1.47,1.4-3.61,2.1-6.4,2.1a10.06,10.06,0,0,1-6.58-2.1,8.39,8.39,0,0,1-3-5.95H220a6.56,6.56,0,0,0,2.15,4.18,7,7,0,0,0,4.78,1.59,6.13,6.13,0,0,0,4.48-1.53,5.3,5.3,0,0,0,1.56-3.93q0-5.85-8.43-5.85h-.85v-2.27h.89q7.84,0,7.85-5.12A4.71,4.71,0,0,0,231,597a5.87,5.87,0,0,0-4.16-1.36,6.73,6.73,0,0,0-4.33,1.36,5.58,5.58,0,0,0-2,3.83h-2.62A7.6,7.6,0,0,1,220.57,595.26Z"/><path class="cls-4" d="M246,617.83a6,6,0,0,0,4.12,1.35,5.88,5.88,0,0,0,5.37-2.83q1.75-2.83,1.6-9.37a6.13,6.13,0,0,1-2.79,3.33,9.11,9.11,0,0,1-4.72,1.21,8.82,8.82,0,0,1-6.48-2.42,9.08,9.08,0,0,1-2.44-6.74,10.58,10.58,0,0,1,1-4.66,7.49,7.49,0,0,1,3-3.27,9.79,9.79,0,0,1,5-1.19q5.46,0,7.62,3.56T259.45,607q0,7.18-2.13,10.81T250,621.45a8.16,8.16,0,0,1-5.93-2.06,8.68,8.68,0,0,1-2.5-5.41h2.5A6.41,6.41,0,0,0,246,617.83Zm7.34-9.37a6,6,0,0,0,2.44-2.21,6.39,6.39,0,0,0,.92-3.5,7.56,7.56,0,0,0-1.79-5.2,6.45,6.45,0,0,0-5.13-2,6.34,6.34,0,0,0-4.76,1.85,6.78,6.78,0,0,0-1.79,4.92,7,7,0,0,0,1.77,5.08,6.62,6.62,0,0,0,5,1.85A7.46,7.46,0,0,0,253.32,608.46Z"/><path class="cls-4" d="M274.94,609.69q3.87-4.22,3.87-8.25a6.45,6.45,0,0,0-1.33-4.26c-.88-1.06-2.33-1.59-4.33-1.59a5.68,5.68,0,0,0-4.52,1.83,7.94,7.94,0,0,0-1.79,4.86h-2.61a9.64,9.64,0,0,1,2.63-6.63,9.64,9.64,0,0,1,12.34-.27,7.63,7.63,0,0,1,2.3,5.94c0,3.11-1.28,6.11-3.86,9a60.73,60.73,0,0,1-9.53,8.52h14.24v2.27H264v-1.92A80.8,80.8,0,0,0,274.94,609.69Z"/><path class="cls-4" d="M292.05,617.83a5.93,5.93,0,0,0,4.12,1.35,5.85,5.85,0,0,0,5.36-2.83q1.75-2.83,1.6-9.37a6.13,6.13,0,0,1-2.79,3.33,9.08,9.08,0,0,1-4.71,1.21,8.83,8.83,0,0,1-6.49-2.42,9.08,9.08,0,0,1-2.44-6.74,10.58,10.58,0,0,1,1-4.66,7.55,7.55,0,0,1,3-3.27,9.82,9.82,0,0,1,5-1.19q5.47,0,7.62,3.56T305.52,607q0,7.18-2.14,10.81c-1.42,2.41-3.87,3.62-7.33,3.62a8.18,8.18,0,0,1-5.93-2.06,8.68,8.68,0,0,1-2.5-5.41h2.5A6.47,6.47,0,0,0,292.05,617.83Zm7.33-9.37a6,6,0,0,0,2.44-2.21,6.39,6.39,0,0,0,.93-3.5,7.61,7.61,0,0,0-1.79-5.2,6.49,6.49,0,0,0-5.14-2,6.3,6.3,0,0,0-4.75,1.85,6.74,6.74,0,0,0-1.79,4.92,7,7,0,0,0,1.77,5.08,6.61,6.61,0,0,0,5,1.85A7.4,7.4,0,0,0,299.38,608.46Z"/><path class="cls-4" d="M327.11,595.86l-10.74,25.47h-2.73l10.85-25.24H309.1v-2.31h18Z"/><rect class="cls-5" x="113.65" y="651.88" width="363.87" height="59.25" rx="29.63"/><path class="cls-4" d="M136.26,675.2a14,14,0,0,1,5.34-5.34,16,16,0,0,1,16.21.61,13.22,13.22,0,0,1,5.17,7h-6.77a7,7,0,0,0-2.84-3.15,8.34,8.34,0,0,0-4.22-1.06,8.71,8.71,0,0,0-4.57,1.2,8.17,8.17,0,0,0-3.11,3.39,12.36,12.36,0,0,0,0,10.24,8.14,8.14,0,0,0,3.11,3.4,8.71,8.71,0,0,0,4.57,1.2,8.25,8.25,0,0,0,4.22-1.07,7.12,7.12,0,0,0,2.84-3.18H163a13.15,13.15,0,0,1-5.15,7,16.08,16.08,0,0,1-16.23.58,13.86,13.86,0,0,1-5.34-5.32,16.28,16.28,0,0,1,0-15.49Z"/><path class="cls-4" d="M173.91,666.56v31.11H168V666.56Z"/><path class="cls-4" d="M179.69,697a3.45,3.45,0,0,1,0-4.92,3.66,3.66,0,0,1,2.63-1,3.53,3.53,0,0,1,2.57,1,3.5,3.5,0,0,1,0,4.92,3.53,3.53,0,0,1-2.57,1A3.66,3.66,0,0,1,179.69,697Z"/><path class="cls-4" d="M199.27,672.45V667H209.4v30.65h-6.06V672.45Z"/><path class="cls-4" d="M216.13,674.67a7.74,7.74,0,0,1,1.15-4.14,8.07,8.07,0,0,1,3.49-3,15.06,15.06,0,0,1,11.4,0,8.07,8.07,0,0,1,3.49,3,7.74,7.74,0,0,1,1.16,4.14,7.23,7.23,0,0,1-1.14,4.06,7.7,7.7,0,0,1-3,2.71,8.28,8.28,0,0,1,3.62,2.95,8,8,0,0,1,1.3,4.58,8.57,8.57,0,0,1-1.45,5,9.26,9.26,0,0,1-4,3.26,13.65,13.65,0,0,1-5.68,1.14,13.45,13.45,0,0,1-5.65-1.14,9.29,9.29,0,0,1-4-3.26,8.64,8.64,0,0,1-1.45-5,8.07,8.07,0,0,1,1.31-4.6,7.83,7.83,0,0,1,3.61-2.93A7.16,7.16,0,0,1,216.13,674.67Zm6.45,10.56a4.25,4.25,0,0,0-1.49,3.49,4.44,4.44,0,0,0,1.45,3.43,5.63,5.63,0,0,0,3.93,1.32,5.47,5.47,0,0,0,3.91-1.35,4.47,4.47,0,0,0,1.43-3.4,4.29,4.29,0,0,0-1.47-3.47,5.78,5.78,0,0,0-3.87-1.24A6,6,0,0,0,222.58,685.23Zm7.28-12.91a4.83,4.83,0,0,0-3.39-1.14,4.73,4.73,0,0,0-3.34,1.14,4.17,4.17,0,0,0-1.24,3.24,3.83,3.83,0,0,0,1.28,3,5.34,5.34,0,0,0,6.62,0,3.86,3.86,0,0,0,1.31-3A4.14,4.14,0,0,0,229.86,672.32Z"/><path class="cls-4" d="M261.75,671.48l-11.19,26.19h-6l11.27-25.52H241.48v-5h20.27Z"/><path class="cls-4" d="M301.82,678.8l-1.39,6.47h5.34v5.26H299.3l-1.52,7.14h-5.59l1.52-7.14h-7.66l-1.51,7.14H279l1.51-7.14h-6.35v-5.26h7.49L283,678.8h-6.3v-5.26h7.44l1.47-7h5.55l-1.47,7h7.65l1.48-7h5.59l-1.47,7h5.38v5.26Zm-5.59,0h-7.65l-1.39,6.47h7.65Z"/><path class="cls-4" d="M311.87,672.45V667H322v30.65H316V672.45Z"/><path class="cls-4" d="M347.32,671.48l-11.19,26.19h-6l11.27-25.52H327.05v-5h20.27Z"/><path class="cls-4" d="M360.54,675.05a9.64,9.64,0,0,1,4.56-1,10.24,10.24,0,0,1,5.41,1.47,10.36,10.36,0,0,1,3.82,4.19,13.43,13.43,0,0,1,1.41,6.28,13.66,13.66,0,0,1-1.41,6.33,10.59,10.59,0,0,1-3.82,4.27,10,10,0,0,1-5.41,1.51,9.59,9.59,0,0,1-4.56-1,8.71,8.71,0,0,1-3.13-2.67v3.32h-5.89V666.56h5.89v11.23A8.3,8.3,0,0,1,360.54,675.05Zm8.33,7.26a6,6,0,0,0-5.32-3.14,6,6,0,0,0-3,.82,6.06,6.06,0,0,0-2.27,2.38,8.22,8.22,0,0,0,0,7.32,6.1,6.1,0,0,0,2.27,2.37,5.95,5.95,0,0,0,6.06,0,6.33,6.33,0,0,0,2.27-2.4,7.55,7.55,0,0,0,.86-3.7A7.33,7.33,0,0,0,368.87,682.31Z"/><path class="cls-4" d="M397.94,680.18v5H380.11v-5Z"/><path class="cls-4" d="M406.5,670.55q2.63-4.11,8.72-4.12t8.73,4.12q2.63,4.13,2.63,11.4T424,693.43q-2.62,4.16-8.73,4.16t-8.72-4.16q-2.62-4.17-2.63-11.48T406.5,670.55Zm13.87,6.16a7,7,0,0,0-1.59-3.47,5.39,5.39,0,0,0-7.11,0,7.12,7.12,0,0,0-1.6,3.47,29.56,29.56,0,0,0-.4,5.24,32.05,32.05,0,0,0,.38,5.36,6.74,6.74,0,0,0,1.6,3.49,5.5,5.5,0,0,0,7.15,0,6.82,6.82,0,0,0,1.6-3.49,32.18,32.18,0,0,0,.37-5.36A28.64,28.64,0,0,0,420.37,676.71Z"/><path class="cls-4" d="M432,674.67a7.66,7.66,0,0,1,1.16-4.14,8,8,0,0,1,3.49-3,15,15,0,0,1,11.39,0,8,8,0,0,1,3.49,3,7.74,7.74,0,0,1,1.16,4.14,7.23,7.23,0,0,1-1.14,4.06,7.63,7.63,0,0,1-3,2.71,8.22,8.22,0,0,1,3.62,2.95,8,8,0,0,1,1.3,4.58,8.57,8.57,0,0,1-1.45,5,9.2,9.2,0,0,1-4,3.26,13.62,13.62,0,0,1-5.68,1.14,13.45,13.45,0,0,1-5.65-1.14,9.29,9.29,0,0,1-4-3.26,8.64,8.64,0,0,1-1.45-5,8.07,8.07,0,0,1,1.31-4.6,7.88,7.88,0,0,1,3.61-2.93A7.16,7.16,0,0,1,432,674.67Zm6.45,10.56a4.25,4.25,0,0,0-1.49,3.49,4.44,4.44,0,0,0,1.45,3.43,5.63,5.63,0,0,0,3.93,1.32,5.45,5.45,0,0,0,3.91-1.35,4.43,4.43,0,0,0,1.43-3.4,4.29,4.29,0,0,0-1.47-3.47A5.78,5.78,0,0,0,442.3,684,6,6,0,0,0,438.41,685.23Zm7.28-12.91a4.83,4.83,0,0,0-3.39-1.14,4.75,4.75,0,0,0-3.34,1.14,4.17,4.17,0,0,0-1.24,3.24,3.83,3.83,0,0,0,1.28,3,5.34,5.34,0,0,0,6.62,0,3.86,3.86,0,0,0,1.31-3A4.14,4.14,0,0,0,445.69,672.32Z"/><rect class="cls-1" x="247.77" y="357.52" width="276.34" height="67.72" rx="33.86"/><path d="M333.23,381.6a3.25,3.25,0,0,1,0,4.57,3.29,3.29,0,0,1-2.39.92,3.39,3.39,0,0,1-2.44-.92,3.2,3.2,0,0,1,0-4.57,3.35,3.35,0,0,1,2.44-.92A3.25,3.25,0,0,1,333.23,381.6Zm-4.81,8.22H333l.63,18.87h-5.9Z"/><path d="M359.27,388.18a7.58,7.58,0,0,1-3.24,3.09,11.82,11.82,0,0,1-5.57,1.17h-4.57v10.47h-5.47V375.64h10a12.1,12.1,0,0,1,5.39,1.09,7.56,7.56,0,0,1,3.34,3,8.4,8.4,0,0,1,1.12,4.34A8.5,8.5,0,0,1,359.27,388.18ZM353.59,387a3.85,3.85,0,0,0,1.09-2.91q0-4-4.46-4h-4.33V388h4.33A4.75,4.75,0,0,0,353.59,387Z"/><path d="M364.55,377.77a3.21,3.21,0,0,1,0-4.58,3.62,3.62,0,0,1,4.8,0,3.21,3.21,0,0,1,0,4.58,3.62,3.62,0,0,1-4.8,0Zm5.1,3.49v21.65h-5.48V381.26Z"/><path d="M374.94,386.19a9.44,9.44,0,0,1,3.58-3.91,9.58,9.58,0,0,1,5-1.37,9.24,9.24,0,0,1,4,.92,8.09,8.09,0,0,1,3.05,2.44V374h5.55v28.91h-5.55v-3.2a7.43,7.43,0,0,1-2.85,2.58,9,9,0,0,1-4.26,1,9.34,9.34,0,0,1-5-1.4,9.73,9.73,0,0,1-3.58-4,12.79,12.79,0,0,1-1.31-5.88A12.54,12.54,0,0,1,374.94,386.19Zm14.95,2.48a5.57,5.57,0,0,0-2.11-2.19,5.57,5.57,0,0,0-7.76,2.15,6.84,6.84,0,0,0-.8,3.38,7.08,7.08,0,0,0,.8,3.42,5.81,5.81,0,0,0,2.11,2.25,5.35,5.35,0,0,0,2.79.78,5.75,5.75,0,0,0,2.86-.76,5.57,5.57,0,0,0,2.11-2.19,7.89,7.89,0,0,0,0-6.84Z"/><path d="M421.5,393.73H405.67a5.38,5.38,0,0,0,1.64,3.67,5.06,5.06,0,0,0,3.56,1.33,4.47,4.47,0,0,0,4.34-2.62h5.9a9.88,9.88,0,0,1-3.6,5.14,10.48,10.48,0,0,1-6.52,2,11.32,11.32,0,0,1-5.61-1.38,9.89,9.89,0,0,1-3.87-3.93,12.08,12.08,0,0,1-1.39-5.86,12.27,12.27,0,0,1,1.37-5.9,9.5,9.5,0,0,1,3.83-3.91,12.29,12.29,0,0,1,11.2,0,9.42,9.42,0,0,1,3.79,3.77,11.41,11.41,0,0,1,1.35,5.61A13.43,13.43,0,0,1,421.5,393.73ZM416,390.06a4.33,4.33,0,0,0-1.52-3.38,5.4,5.4,0,0,0-3.64-1.27,5,5,0,0,0-3.42,1.23,5.44,5.44,0,0,0-1.7,3.42Z"/><path d="M455.65,381.26l-13.4,31.89h-5.82l4.68-10.79-8.67-21.1h6.13l5.59,15.13,5.67-15.13Z"/><path d="M458.48,386.19a9.59,9.59,0,0,1,3.56-3.91,9.48,9.48,0,0,1,5-1.37,8.82,8.82,0,0,1,4.24,1,8.6,8.6,0,0,1,2.91,2.46v-3.09h5.51v21.65h-5.51v-3.16a8.19,8.19,0,0,1-2.91,2.52,9,9,0,0,1-4.28,1,9.27,9.27,0,0,1-5-1.4,9.89,9.89,0,0,1-3.56-4,12.79,12.79,0,0,1-1.31-5.88A12.54,12.54,0,0,1,458.48,386.19Zm14.95,2.48a5.5,5.5,0,0,0-2.11-2.19,5.57,5.57,0,0,0-7.76,2.15,6.84,6.84,0,0,0-.8,3.38,7.08,7.08,0,0,0,.8,3.42,5.88,5.88,0,0,0,2.11,2.25,5.41,5.41,0,0,0,2.8.78,5.74,5.74,0,0,0,2.85-.76,5.5,5.5,0,0,0,2.11-2.19,7.89,7.89,0,0,0,0-6.84Z"/><path d="M486.89,402.27a3.2,3.2,0,0,1,0-4.57,3.35,3.35,0,0,1,2.44-.92,3.25,3.25,0,0,1,2.39.92,3.25,3.25,0,0,1,0,4.57,3.29,3.29,0,0,1-2.39.92A3.39,3.39,0,0,1,486.89,402.27Zm5.26-27.1L491.52,394h-4.61l-.66-18.87Z"/><circle class="cls-4" cx="285.93" cy="390.66" r="22.84"/><path d="M277.3,380.87H285l9.53,9.79L285,400.45H277.3l9.57-9.79Z"/></g></g></svg>